# xmcd
#
# Track frame offsets:
# 150
# 17235
# 31457
# 43311
# 55674
# 67316
# 84434
# 96785
# 108778
#
# Disc length: 1588 seconds
#
#
# Revision: 0
# Processed by: cddbd v1.5.2PL0 Copyright (c) Steve Scherf et al.
# Submitted via: FreeRIP 2.945 
#
DISCID=74063209
DTITLE=Bill Anderson - Billy Boy and Mary Lou
DYEAR=1900
DGENRE=Country
TTITLE0=Country Lay On My Mind
TTITLE1=I'm Way Ahead Of You
TTITLE2=What We'reTaking Here Tonight
TTITLE3=ust Enough To Make Me Want It All
TTITLE4=I've Been Loving You Too Long
TTITLE5=I've Been Loving You Too Long
TTITLE6=We Made Love
TTITLE7=Where Are You Going Billy Boy
TTITLE8=Sad Old Shades Of Gray
EXTD=
EXTT0=
EXTT1=
EXTT2=
EXTT3=
EXTT4=
EXTT5=
EXTT6=
EXTT7=
EXTT8=
PLAYORDER=
